<svg width="120" height="120" viewBox="0 0 120 120" xmlns="http://www.w3.org/2000/svg">
  <defs>
    <linearGradient id="lingo-bg" x1="0" y1="0" x2="1" y2="1">
      <stop offset="0%" stop-color="#22c5fd"></stop>
      <stop offset="100%" stop-color="#0f9cf5"></stop>
    </linearGradient>
  </defs>

  <!-- جسم لِينغو: فقاعة بيضاوية ديناميكية -->
  <path d="M20 60C20 32 38 16 60 16C86 16 100 32 100 56C100 84 82 104 60 104C36 104 20 86 20 60Z" fill="url(#lingo-bg)"></path>

  <!-- "ذيل" فقاعة كلام صغيرة -->
  <path d="M40 96 L38 112 L50 100 Z" fill="#22c5fd"></path>

  <!-- لمعان -->
  <circle cx="48" cy="30" r="6" fill="#e0f2fe" opacity="0.8"></circle>

  <!-- عينين كبيرتين -->
  <circle cx="46" cy="56" r="8" fill="#ffffff"></circle>
  <circle cx="74" cy="56" r="8" fill="#ffffff"></circle>
  <circle cx="46" cy="56" r="4.5" fill="#0f172a"></circle>
  <circle cx="74" cy="56" r="4.5" fill="#0f172a"></circle>
  <circle cx="44" cy="54" r="1.5" fill="#f9fafb"></circle>
  <circle cx="72" cy="54" r="1.5" fill="#f9fafb"></circle>

  <!-- خدود -->
  <circle cx="38" cy="64" r="3" fill="#fca5a5" opacity="0.9"></circle>
  <circle cx="82" cy="64" r="3" fill="#fca5a5" opacity="0.9"></circle>

  <!-- فم مبتسم بحماس -->
  <path d="M44 70 C 52 80, 68 80, 76 70" stroke="#0f172a" stroke-width="3" fill="none" stroke-linecap="round"></path>

  <!-- كتاب طاير صغير يعطي إحساس اللغة -->
  <rect x="26" y="34" width="18" height="14" rx="3" fill="#0ea5e9"></rect>
  <path d="M44 38 L52 42 L44 44 Z" fill="#0ea5e9"></path>
  <text x="35" y="43" text-anchor="middle" font-size="7" fill="#e0f2fe" font-family="system-ui">A</text>

  <!-- أذرع صغيرة تتحرك -->
  <path d="M24 58 C 16 54, 14 46, 18 40" stroke="#22c5fd" stroke-width="4" stroke-linecap="round"></path>
  <path d="M96 58 C 104 54, 106 46, 102 40" stroke="#22c5fd" stroke-width="4" stroke-linecap="round"></path>

  <!-- شرار حماس صغير -->
  <circle cx="24" cy="30" r="2" fill="#facc15"></circle>
  <circle cx="96" cy="34" r="2.5" fill="#facc15"></circle>
</svg>
